:FULLY-SPECIFIED
:FORCE-ALL-JOINTS-BE-3DOF
:DEGREES
815
root 2.00426 16.5914 22.6726 4.12911 3.19036 -6.51068
lfemur -36.9475 -1.36487 0.754277
ltibia 25.2515 -0 0
lfoot -10.3044 9.97793 0.367858
ltoes 16.9189 -0 0
rfemur 1.53637 3.69685 21.3352
rtibia 23.9242 -0 0
rfoot -21.7613 -12.7736 0.00511376
rtoes -24.4571 0 0
lowerback 0.362695 6.32332 5.254
upperback -0.30542 8.4564 -0.417826
thorax 0.310061 4.23291 -3.26196
lowerneck -5.62866 -2.01251 2.77901
upperneck -0.132126 -2.88261 1.65531
head 0.885045 -1.40736 -0.0196919
lclavicle -2.48481e-16 0 0
lhumerus -53.8139 -6.67207 90.9768
lradius 55.3473 -0 0
lwrist 19.9821 0 0
lhand -8.51008 5.0728 0.015904
lfingers 7.12502 -0 0
lthumb 17.4169 34.2968 0.0115286
rclavicle -2.48481e-16 0 0
rhumerus -30.9494 45.2103 -110.236
rradius 68.363 -0 0
rwrist -1.00072 0 0
rhand -10.6794 -23.9946 0.13442
rfingers 7.12502 -0 0
rthumb 15.3241 -53.3084 0.147861
816
root 2.03224 16.5881 22.8159 4.21464 1.67602 -6.71881
lfemur -36.7228 -1.25307 1.35651
ltibia 23.5699 -0 0
lfoot -9.77679 10.9741 0.312558
ltoes 17.3427 -0 0
rfemur 2.39212 4.25899 21.493
rtibia 22.9228 -0 0
rfoot -21.6847 -12.6779 0.00434667
rtoes -24.7575 0 0
lowerback 0.293774 6.42965 5.39524
upperback -0.307654 8.59513 -0.333792
thorax 0.365448 4.30302 -3.24255
lowerneck -5.60411 -1.89957 2.88844
upperneck -0.0582654 -2.73931 1.59143
head 0.901078 -1.33621 -0.0543923
lclavicle -2.48481e-16 0 0
lhumerus -53.728 -6.56869 90.8807
lradius 54.6881 -0 0
lwrist 19.6765 0 0
lhand -8.24038 5.15725 0.013518
lfingers 7.12502 -0 0
lthumb 17.6766 34.3604 0.00979906
rclavicle -2.48481e-16 0 0
rhumerus -30.6738 45.2032 -109.883
rradius 68.0892 -0 0
rwrist -1.29602 0 0
rhand -9.97772 -23.7205 0.114237
rfingers 7.12502 -0 0
rthumb 16.0006 -52.9956 0.125661
817
root 2.06022 16.5848 22.9591 4.30563 0.161998 -6.92911
lfemur -36.497 -1.14364 1.95915
ltibia 21.8883 -0 0
lfoot -9.25019 11.9697 0.248095
ltoes 17.7665 -0 0
rfemur 3.25009 4.81871 21.6593
rtibia 21.9213 -0 0
rfoot -21.6082 -12.5822 0.00345175
rtoes -25.0578 0 0
lowerback 0.225103 6.53615 5.53638
upperback -0.309683 8.73387 -0.249733
thorax 0.420865 4.37311 -3.22307
lowerneck -5.57936 -1.78667 2.9979
upperneck 0.0154268 -2.59593 1.52775
head 0.917068 -1.26505 -0.0890718
lclavicle -2.48481e-16 0 0
lhumerus -53.6422 -6.46516 90.7848
lradius 54.0289 -0 0
lwrist 19.3709 0 0
lhand -7.97069 5.24169 0.0107346
lfingers 7.12502 -0 0
lthumb 17.9363 34.424 0.00778141
rclavicle -2.48481e-16 0 0
rhumerus -30.3983 45.195 -109.53
rradius 67.8154 -0 0
rwrist -1.59132 0 0
rhand -9.27615 -23.4467 0.0906996
rfingers 7.12502 -0 0
rthumb 16.677 -52.6832 0.0997698
818
root 2.0882 16.5814 23.1024 4.4022 -1.35167 -7.14188
lfemur -36.2701 -1.03658 2.56219
ltibia 20.2067 -0 0
lfoot -8.72478 12.9646 0.174495
ltoes 18.1902 -0 0
rfemur 4.11043 5.37589 21.8341
rtibia 20.9199 -0 0
rfoot -21.5317 -12.4865 0.002429
rtoes -25.3582 0 0
lowerback 0.156681 6.64282 5.67742
upperback -0.311507 8.87261 -0.165647
thorax 0.476311 4.44318 -3.20353
lowerneck -5.55439 -1.67382 3.10741
upperneck 0.0889514 -2.45247 1.46427
head 0.933014 -1.19388 -0.123731
lclavicle -2.48481e-16 0 0
lhumerus -53.5567 -6.3615 90.689
lradius 53.3697 -0 0
lwrist 19.0654 0 0
lhand -7.701 5.32612 0.00755374
lfingers 7.12502 -0 0
lthumb 18.196 34.4875 0.00547565
rclavicle -2.48481e-16 0 0
rhumerus -30.1229 45.1855 -109.177
rradius 67.5417 -0 0
rwrist -1.88662 0 0
rhand -8.5747 -23.1732 0.0638109
rfingers 7.12502 -0 0
rthumb 17.3533 -52.3711 0.0701925
819
root 2.11618 16.5781 23.2456 4.50449 -2.86498 -7.3574
lfemur -36.042 -0.931925 3.16564
ltibia 18.5252 -0 0
lfoot -8.20073 13.9589 0.0917861
ltoes 18.614 -0 0
rfemur 4.97331 5.93038 22.0175
rtibia 19.9184 -0 0
rfoot -21.4551 -12.3908 0.00127841
rtoes -25.6585 0 0
lowerback 0.0885085 6.74966 5.81836
upperback -0.313125 9.01135 -0.0815343
thorax 0.531786 4.51323 -3.18391
lowerneck -5.52921 -1.56102 3.21696
upperneck 0.162309 -2.30893 1.40097
head 0.948917 -1.1227 -0.158369
lclavicle -2.48481e-16 0 0
lhumerus -53.4714 -6.25769 90.5934
lradius 52.7105 -0 0
lwrist 18.7598 0 0
lhand -7.43131 5.41054 0.00397551
lfingers 7.12502 -0 0
lthumb 18.4557 34.5511 0.00288182
rclavicle -2.48481e-16 0 0
rhumerus -29.8476 45.1749 -108.824
rradius 67.2679 -0 0
rwrist -2.18193 0 0
rhand -7.87339 -22.9 0.033576
rfingers 7.12502 -0 0
rthumb 18.0293 -52.0593 0.036934
